HIERARCHY
ROOT Hips
{
	OFFSET 0.00000 0.00000 0.00000
	CHANNELS 6 Xposition Yposition Zposition Zrotation Yrotation Xrotation 
	JOINT LHipJoint
	{
		OFFSET 0 0 0
		CHANNELS 3 Zrotation Yrotation Xrotation
		JOINT LeftHip
		{
			OFFSET 1.58895 -1.83665 0.71753
			CHANNELS 3 Zrotation Yrotation Xrotation
			JOINT LeftKnee
			{
				OFFSET 2.50528 -6.88321 0.00000
				CHANNELS 3 Zrotation Yrotation Xrotation
				JOINT LeftAnkle
				{
					OFFSET 2.63244 -7.23257 0.00000
					CHANNELS 3 Zrotation Yrotation Xrotation
					JOINT LeftToe
					{
						OFFSET 0.23691 -0.65090 1.72750
						CHANNELS 3 Zrotation Yrotation Xrotation
						End Site
						{
							OFFSET 0.00000 -0.00000 0.92561
						}
					}
				}
			}
		}
	}
	JOINT RHipJoint
	{
		OFFSET 0 0 0
		CHANNELS 3 Zrotation Yrotation Xrotation
		JOINT RightHip
		{
			OFFSET -1.51435 -1.83665 0.71753
			CHANNELS 3 Zrotation Yrotation Xrotation
			JOINT RightKnee
			{
				OFFSET -2.54551 -6.99375 0.00000
				CHANNELS 3 Zrotation Yrotation Xrotation
				JOINT RightAnkle
				{
					OFFSET -2.66027 -7.30903 0.00000
					CHANNELS 3 Zrotation Yrotation Xrotation
					JOINT RightToe
					{
						OFFSET -0.22981 -0.63138 2.03959
						CHANNELS 3 Zrotation Yrotation Xrotation
						End Site
						{
							OFFSET -0.00000 -0.00000 1.07060
						}
					}
				}
			}
		}
	}
	JOINT lowerback
	{
		OFFSET 0 0 0
		CHANNELS 3 Zrotation Yrotation Xrotation
		JOINT Chest
		{
			OFFSET -0.02651 1.86275 -0.11152
			CHANNELS 3 Zrotation Yrotation Xrotation
			JOINT Chest2
			{
				OFFSET 0.01019 1.86224 0.04087
				CHANNELS 3 Zrotation Yrotation Xrotation
				JOINT lowerneck
				{
					OFFSET 0 0 0
					CHANNELS 3 Zrotation Yrotation Xrotation
					JOINT Neck
					{
						OFFSET -0.01926 1.80512 0.08867
						CHANNELS 3 Zrotation Yrotation Xrotation
						JOINT Head
						{
							OFFSET 0.05516 1.76451 -0.38475
							CHANNELS 3 Zrotation Yrotation Xrotation
							End Site
							{
								OFFSET 0.01592 1.82587 -0.14001
							}
						}
					}
				}
				JOINT LeftCollar
				{
					OFFSET 0 0 0
					CHANNELS 3 Zrotation Yrotation Xrotation
					JOINT LeftShoulder
					{
						OFFSET 3.47116 1.51376 0.14491
CHANNELS 3 Zrotation Xrotation Yrotation
						JOINT LeftElbow
						{
OFFSET 0 -4.780950 0.000000
CHANNELS 3 Zrotation Xrotation Yrotation
							JOINT LeftWrist
							{
OFFSET 0 -3.586150 -0.000000
CHANNELS 3 Zrotation Xrotation Yrotation
								JOINT lhand
								{
									OFFSET 0 0 0
CHANNELS 3 Zrotation Xrotation Yrotation
									JOINT LFingers
									{
OFFSET 0 -0.659810 0.000000
CHANNELS 3 Zrotation Xrotation Yrotation
										End Site
										{
OFFSET 0 -0.531960 0.000000
										}
									}
								}
								JOINT LThumb
								{
OFFSET 0 0.000000 0.000000
CHANNELS 3 Zrotation Xrotation Yrotation
									End Site
									{
OFFSET 0 -0.540080 0.540080
									}
								}
							}
						}
					}
				}
				JOINT RightCollar
				{
					OFFSET 0 0 0
					CHANNELS 3 Zrotation Yrotation Xrotation
					JOINT RightShoulder
					{
						OFFSET -3.31725 1.61216 0.35156
CHANNELS 3 Zrotation Xrotation Yrotation
						JOINT RightElbow
						{
OFFSET 0 -4.489130 0.000000
CHANNELS 3 Zrotation Xrotation Yrotation
							JOINT RightWrist
							{
OFFSET 0 -3.705100 0.000000
CHANNELS 3 Zrotation Xrotation Yrotation
								JOINT rhand
								{
									OFFSET 0 0 0
CHANNELS 3 Zrotation Xrotation Yrotation
									JOINT RFingers
									{
OFFSET 0 -0.449140 0.000000
CHANNELS 3 Zrotation Xrotation Yrotation
										End Site
										{
OFFSET 0 -0.362110 0.000000
										}
									}
								}
								JOINT RThumb
								{
OFFSET 0 0.000000 0.000000
CHANNELS 3 Zrotation Xrotation Yrotation
									End Site
									{
OFFSET 0 -0.367630 0.367630
									}
								}
							}
						}
					}
				}
			}
		}
	}
}
MOTION
Frames: 12
Frame Time: 0.008333333333333333
-0.466362 18.116612 5.809316 -3.703695 9.889418 15.084441 0.000000 0.000000 0.000000 -6.393882 -11.122421 -34.911865 5.592995 14.021979 43.325645 1.410877 -8.792291 -21.275922 8.840312 -16.703908 -55.536356 0.000000 0.000000 0.000000 19.114018 -11.543617 -28.551222 -2.762861 -10.300788 29.956533 -1.129988 8.945317 -19.087236 -0.708876 5.381177 -14.998994 6.114925 2.750390 15.651871 0.619810 5.097239 -4.730830 -4.120987 1.877201 -13.664258 9.323676 12.955678 -17.859705 -9.007135 15.337009 -11.672260 -3.268860 7.317256 0.593017 0.000000 0.000000 0.000000 10.594802 12.641163 -53.486801 142.215590 -46.701061 103.191502 -12.864095 7.323007 8.218164 0.000000 0.000000 0.000000 -7.125000 0.000000 0.000000 -27.723101 21.604697 -17.715088 0.000000 0.000000 0.000000 -4.423444 28.239445 38.684714 -144.980705 -44.825925 -105.173033 -5.711146 23.389764 47.483137 0.000000 0.000000 0.000000 7.125000 0.000000 0.000000 53.996852 70.979765 -36.596861
-0.459999 18.123390 5.840786 -3.819912 9.917294 14.652129 0.000000 0.000000 0.000000 -6.422820 -10.915268 -34.255029 5.551076 13.978713 43.152111 1.415447 -8.867672 -21.314130 8.823026 -16.692464 -55.475996 0.000000 0.000000 0.000000 19.176594 -11.827843 -27.767543 -2.677273 -10.153266 29.474532 -1.122207 8.884429 -19.017419 -0.717041 5.411146 -15.085049 6.138179 2.701746 15.387512 0.606171 5.016911 -4.772894 -4.110960 1.843122 -13.558289 9.197035 12.842086 -18.274963 -9.077057 15.150496 -11.918605 -3.241195 7.218318 0.544126 0.000000 0.000000 0.000000 10.522613 12.697011 -53.411041 142.206289 -46.707063 103.184664 -13.204466 7.318545 8.064712 0.000000 0.000000 0.000000 -7.125000 0.000000 0.000000 -27.968019 21.726270 -17.827565 0.000000 0.000000 0.000000 -4.306095 28.316116 38.556227 -144.880612 -44.897137 -105.102423 -3.798754 21.910289 48.283653 0.000000 0.000000 0.000000 7.125000 0.000000 0.000000 57.522503 70.747086 -39.176209
-0.456073 18.128350 5.868706 -3.920276 9.928801 14.195877 0.000000 0.000000 0.000000 -6.458825 -10.730158 -33.578904 5.508929 13.934932 42.977560 1.420649 -8.914741 -21.355745 8.811879 -16.685094 -55.437279 0.000000 0.000000 0.000000 19.210697 -12.085989 -26.990479 -2.601303 -10.019645 29.040629 -1.118369 8.809746 -18.978799 -0.730612 5.461098 -15.228501 6.142894 2.642870 15.231500 0.584771 4.926068 -4.810107 -4.104915 1.801554 -13.514450 8.949989 12.685075 -18.421171 -8.741715 14.990644 -12.229453 -3.344359 7.145742 0.473212 0.000000 0.000000 0.000000 10.431002 12.716745 -53.341516 142.250832 -46.678343 103.217116 -13.415485 7.325160 8.014449 0.000000 0.000000 0.000000 -7.125000 0.000000 0.000000 -28.110086 21.760637 -17.919703 0.000000 0.000000 0.000000 -4.165784 28.427390 38.757067 -144.738741 -44.997744 -105.002214 -8.933667 24.592815 47.422489 0.000000 0.000000 0.000000 7.125000 0.000000 0.000000 51.065615 72.074277 -35.396410
-0.459643 18.136244 5.899143 -3.947067 9.785298 13.708138 0.000000 0.000000 0.000000 -6.589620 -10.390962 -32.822519 5.463382 13.887361 42.788056 1.425444 -9.092900 -21.401583 8.765234 -16.654288 -55.274667 0.000000 0.000000 0.000000 19.133948 -12.236041 -26.118595 -2.528812 -9.890051 28.621380 -1.110828 8.782237 -18.914756 -0.715125 5.404026 -15.064616 5.941845 2.651181 15.123100 0.518556 4.879422 -4.824238 -4.047527 1.795392 -13.478227 8.837815 12.566420 -18.793948 -8.603786 14.813626 -12.342465 -3.283640 7.053700 0.454982 0.000000 0.000000 0.000000 10.470657 12.709306 -53.311866 142.292013 -46.651798 103.247126 -13.385098 7.267158 7.921596 0.000000 0.000000 0.000000 -7.125000 0.000000 0.000000 -28.111252 21.846269 -17.856161 0.000000 0.000000 0.000000 -3.920555 28.498407 38.827609 -144.585597 -45.105783 -104.893814 -12.995946 26.527870 46.333603 0.000000 0.000000 0.000000 7.125000 0.000000 0.000000 44.630690 72.874497 -31.125291
-0.453662 18.140793 5.924678 -3.957580 9.813810 13.246249 0.000000 0.000000 0.000000 -6.713223 -10.331009 -32.084241 5.418637 13.840280 42.601298 1.441538 -9.106764 -21.521672 8.774164 -16.660176 -55.305946 0.000000 0.000000 0.000000 19.071311 -12.568652 -25.345644 -2.455267 -9.755989 28.190187 -1.107773 8.711405 -18.882979 -0.715707 5.406399 -15.071556 5.914797 2.574163 14.971426 0.476661 4.753530 -4.830433 -4.037376 1.740827 -13.404431 8.763257 12.477597 -19.042774 -8.604174 14.676484 -12.519479 -3.279826 6.981495 0.415676 0.000000 0.000000 0.000000 10.447352 12.672177 -53.266295 142.349066 -46.614880 103.288539 -13.316263 7.088798 7.733697 0.000000 0.000000 0.000000 -7.125000 0.000000 0.000000 -28.108681 22.020013 -17.723147 0.000000 0.000000 0.000000 -3.782240 28.504251 38.556140 -144.587581 -45.104368 -104.895210 -11.747595 25.926497 46.874101 0.000000 0.000000 0.000000 7.125000 0.000000 0.000000 47.187668 72.761157 -33.005070
-0.453168 18.145473 5.948853 -4.107717 9.700779 12.781345 0.000000 0.000000 0.000000 -6.677443 -10.153828 -31.373285 5.374793 13.793824 42.417865 1.458574 -9.117191 -21.647985 8.777830 -16.662649 -55.318672 0.000000 0.000000 0.000000 19.134993 -12.659743 -24.530958 -2.384147 -9.624002 27.767588 -1.121577 8.573082 -18.985232 -0.754649 5.548306 -15.479216 5.903945 2.553600 14.829910 0.506444 4.716312 -4.822690 -3.978745 1.730995 -13.316652 8.469689 12.395663 -19.371359 -8.436866 14.588800 -12.646752 -3.172915 6.942895 0.375364 0.000000 0.000000 0.000000 10.414660 12.592585 -53.153716 142.466556 -46.538676 103.373920 -13.493259 7.333758 7.624460 0.000000 0.000000 0.000000 -7.125000 0.000000 0.000000 -28.242781 22.109199 -17.765844 0.000000 0.000000 0.000000 -3.741379 28.360976 37.805486 -144.691291 -45.031288 -104.968687 -7.586650 24.187141 47.346729 0.000000 0.000000 0.000000 7.125000 0.000000 0.000000 52.079647 71.561217 -35.672677
-0.455314 18.151004 5.973234 -4.159297 9.596000 12.400541 0.000000 0.000000 0.000000 -6.722295 -10.024273 -30.721024 5.328339 13.744331 42.222726 1.471284 -9.070807 -21.739430 8.769525 -16.657130 -55.289658 0.000000 0.000000 0.000000 19.118406 -12.745342 -23.798676 -2.315164 -9.493694 27.352191 -1.130321 8.449599 -19.047926 -0.800681 5.711145 -15.948646 5.779840 2.530832 14.636941 0.510187 4.647943 -4.842510 -3.875931 1.713915 -13.238440 8.344345 12.307482 -19.563370 -8.398066 14.469905 -12.819071 -3.148568 6.883599 0.322520 0.000000 0.000000 0.000000 10.387802 12.490190 -52.970419 142.506798 -46.512610 103.403077 -13.962396 7.701723 7.711251 0.000000 0.000000 0.000000 -7.125000 0.000000 0.000000 -28.515533 22.004563 -18.071596 0.000000 0.000000 0.000000 -3.772460 28.276493 37.445874 -144.720511 -45.010683 -104.989317 -5.296806 23.248638 47.740668 0.000000 0.000000 0.000000 7.125000 0.000000 0.000000 54.980309 70.976387 -37.378367
-0.454677 18.157020 5.998152 -4.216514 9.526395 12.019376 0.000000 0.000000 0.000000 -6.765986 -9.944142 -30.046044 5.274878 13.686775 41.997175 1.480886 -8.972597 -21.804659 8.767386 -16.655657 -55.282176 0.000000 0.000000 0.000000 19.108386 -12.873547 -23.069327 -2.244335 -9.357447 26.919957 -1.134820 8.344045 -19.077893 -0.789910 5.673396 -15.839813 5.718566 2.526486 14.414133 0.509697 4.613103 -4.837040 -3.818183 1.710040 -13.104144 8.185365 12.193718 -19.858477 -8.337507 14.318300 -12.935280 -3.107652 6.807940 0.298114 0.000000 0.000000 0.000000 10.359180 12.370536 -52.929241 142.532256 -46.496002 103.421584 -14.065001 7.772236 7.810349 0.000000 0.000000 0.000000 -7.125000 0.000000 0.000000 -28.557328 21.909212 -18.179828 0.000000 0.000000 0.000000 -3.780053 28.210191 37.413698 -144.693713 -45.029590 -104.970336 -3.693668 22.080067 48.369285 0.000000 0.000000 0.000000 7.125000 0.000000 0.000000 57.822147 70.753774 -39.429175
-0.458089 18.163817 6.024576 -4.236996 9.552194 11.571640 0.000000 0.000000 0.000000 -6.844298 -9.807683 -29.320854 5.217176 13.624262 41.752539 1.484398 -9.015671 -21.832520 8.770640 -16.657783 -55.293401 0.000000 0.000000 0.000000 19.067232 -13.047706 -22.225942 -2.167852 -9.207074 26.445404 -1.146226 8.179917 -19.161119 -0.785781 5.658726 -15.797506 5.670109 2.514131 14.292640 0.484314 4.574329 -4.830513 -3.801397 1.698666 -13.027460 8.019003 12.059617 -20.013919 -8.250560 14.154574 -13.134198 -3.068180 6.730590 0.219782 0.000000 0.000000 0.000000 10.375969 12.254851 -52.966962 142.554468 -46.481555 103.437663 -14.047082 7.724561 7.827663 0.000000 0.000000 0.000000 -7.125000 0.000000 0.000000 -28.542409 21.894528 -18.178639 0.000000 0.000000 0.000000 -3.734930 28.156735 37.227886 -144.631547 -45.073432 -104.926415 -4.048898 22.296047 47.878580 0.000000 0.000000 0.000000 7.125000 0.000000 0.000000 56.327584 70.621299 -38.073145
-0.462894 18.170909 6.051913 -4.275532 9.624738 11.092159 0.000000 0.000000 0.000000 -6.895525 -9.654592 -28.573734 5.162906 13.564979 41.521850 1.484585 -9.141417 -21.840637 8.769559 -16.657132 -55.289816 0.000000 0.000000 0.000000 19.046887 -13.258523 -21.344903 -2.092408 -9.055848 25.970316 -1.161136 8.056549 -19.277177 -0.792687 5.682886 -15.867050 5.650667 2.480439 14.268589 0.454507 4.519577 -4.832896 -3.809002 1.673382 -13.019934 7.765831 11.932256 -20.265425 -8.021768 14.016027 -13.241288 -2.956762 6.669037 0.169956 0.000000 0.000000 0.000000 10.384932 12.161181 -52.998057 142.567685 -46.472865 103.447286 -13.945040 7.491819 7.552298 0.000000 0.000000 0.000000 -7.125000 0.000000 0.000000 -28.539717 22.149172 -17.980318 0.000000 0.000000 0.000000 -3.722325 28.251190 37.701676 -144.506791 -45.161086 -104.837967 -9.425512 24.636772 46.719835 0.000000 0.000000 0.000000 7.125000 0.000000 0.000000 48.828403 71.834132 -33.406727
-0.464604 18.174748 6.072101 -4.319664 9.606776 10.766156 0.000000 0.000000 0.000000 -6.927947 -9.470842 -28.058704 5.116474 13.513750 41.323472 1.478176 -9.191159 -21.796499 8.782339 -16.665627 -55.334441 0.000000 0.000000 0.000000 19.028349 -13.320357 -20.658220 -2.023417 -8.914694 25.528786 -1.167789 7.974186 -19.328041 -0.738985 5.491690 -15.316595 5.656514 2.473256 14.204198 0.398328 4.503005 -4.893317 -3.868576 1.660160 -13.047516 7.894678 11.882398 -20.340799 -8.166466 13.904594 -13.472310 -3.042380 6.604590 0.116595 0.000000 0.000000 0.000000 10.440194 12.157574 -52.967111 142.603217 -46.449631 103.473021 -13.996874 7.455317 7.474416 0.000000 0.000000 0.000000 -7.125000 0.000000 0.000000 -28.589127 22.216581 -17.969256 0.000000 0.000000 0.000000 -3.673074 28.275183 37.424494 -144.561304 -45.122917 -104.876643 -7.617811 23.720220 47.176960 0.000000 0.000000 0.000000 7.125000 0.000000 0.000000 51.631499 71.472785 -35.234001
-0.467431 18.179954 6.089533 -4.335071 9.620723 10.514097 0.000000 0.000000 0.000000 -6.965690 -9.354881 -27.647149 5.076791 13.469721 41.153373 1.474113 -9.225136 -21.768843 8.777782 -16.662558 -55.318351 0.000000 0.000000 0.000000 19.002114 -13.335609 -20.080854 -1.965430 -8.793565 25.151832 -1.180454 7.781503 -19.423635 -0.751743 5.537804 -15.449104 5.418571 2.465312 13.937392 0.531384 4.437823 -4.786781 -3.551515 1.670000 -12.795331 8.155394 11.906423 -20.119042 -8.784108 13.863123 -14.190648 -3.334103 6.573408 -0.092915 0.000000 0.000000 0.000000 10.152834 11.955572 -52.818311 142.611471 -46.444258 103.479027 -13.736248 7.276134 7.377075 0.000000 0.000000 0.000000 -7.125000 0.000000 0.000000 -28.448525 22.319295 -17.774489 0.000000 0.000000 0.000000 -3.962273 28.075687 37.883409 -144.448365 -45.202032 -104.796568 -11.020215 25.038771 46.263954 0.000000 0.000000 0.000000 7.125000 0.000000 0.000000 46.321525 72.122286 -31.742377
